HIERARCHY
ROOT Hips
{
  OFFSET 3.13124 94.3669 -3.18751
  CHANNELS  6 Xposition Yposition Zposition Zrotation Xrotation Yrotation
  JOINT LeftUpLeg
  {
    OFFSET 8.64259 1.95398 -2.38835
    CHANNELS 3 Zrotation Xrotation Yrotation
    JOINT LeftLeg
    {
      OFFSET 43.7702 0 0
      CHANNELS 3 Zrotation Xrotation Yrotation
      JOINT LeftFoot
      {
        OFFSET 40.6238 0 0
        CHANNELS 3 Zrotation Xrotation Yrotation
        JOINT LeftToeBase
        {
          OFFSET 12.7242 0 0
          CHANNELS 3 Zrotation Xrotation Yrotation
          End Site
          {
            OFFSET 0 0 0
          }
        }
      }
    }
  }
  JOINT RightUpLeg
  {
    OFFSET -8.2249 1.95398 -2.59336
    CHANNELS 3 Zrotation Xrotation Yrotation
    JOINT RightLeg
    {
      OFFSET 43.5653 0 0
      CHANNELS 3 Zrotation Xrotation Yrotation
      JOINT RightFoot
      {
        OFFSET 40.6238 0 0
        CHANNELS 3 Zrotation Xrotation Yrotation
        JOINT RightToeBase
        {
          OFFSET 12.7242 0 0
          CHANNELS 3 Zrotation Xrotation Yrotation
          End Site
          {
            OFFSET 0 0 0
          }
        }
      }
    }
  }
  JOINT Spine
  {
    OFFSET 0.165834 0.87714 6.61349
    CHANNELS 3 Zrotation Xrotation Yrotation
    JOINT Spine1
    {
      OFFSET 7.38962 1.71661e-005 0
      CHANNELS 3 Zrotation Xrotation Yrotation
      JOINT Spine2
      {
        OFFSET 11.9445 1.14441e-005 0
        CHANNELS 3 Zrotation Xrotation Yrotation
        JOINT Spine3
        {
          OFFSET 14.7254 4.19617e-005 0
          CHANNELS 3 Zrotation Xrotation Yrotation
          JOINT Spine4
          {
            OFFSET 10.9679 0 0
            CHANNELS 3 Zrotation Xrotation Yrotation
            JOINT RightShoulder
            {
              OFFSET 2.46616 -1.6653 3.69651
              CHANNELS 3 Zrotation Xrotation Yrotation
              JOINT RightArm
              {
                OFFSET 13.0012 0 0
                CHANNELS 3 Zrotation Xrotation Yrotation
                JOINT RightForeArm
                {
                  OFFSET 28.7848 1.52588e-005 0
                  CHANNELS 3 Zrotation Xrotation Yrotation
                  JOINT RightHand
                  {
                    OFFSET 26.5688 1.52588e-005 0
                    CHANNELS 3 Zrotation Xrotation Yrotation
                    End Site
                    {
                      OFFSET 0 0 0
                    }
                  }
                }
              }
            }
            JOINT LeftShoulder
            {
              OFFSET 2.38034 -1.29275 -3.75231
              CHANNELS 3 Zrotation Xrotation Yrotation
              JOINT LeftArm
              {
                OFFSET 16.3182 6.10352e-005 0
                CHANNELS 3 Zrotation Xrotation Yrotation
                JOINT LeftForeArm
                {
                  OFFSET 27.0901 0 0
                  CHANNELS 3 Zrotation Xrotation Yrotation
                  JOINT LeftHand
                  {
                    OFFSET 24.5451 1.52588e-005 0
                    CHANNELS 3 Zrotation Xrotation Yrotation
                    End Site
                    {
                      OFFSET 0 0 0
                    }
                  }
                }
              }
            }
            JOINT Neck
            {
              OFFSET 5.0226 -0.0266342 0
              CHANNELS 3 Zrotation Xrotation Yrotation
              JOINT Head
              {
                OFFSET 6.69363 2.86102e-005 0
                CHANNELS 3 Zrotation Xrotation Yrotation
                End Site
                {
                  OFFSET 0 0 0
                }
              }
            }
          }
        }
      }
    }
  }
}
MOTION
Frames:	9
Frame Time:	0.0333333
-78.0607 80.7861 -110.952 69.006 -69.5885 60.4822 -169.13 50.9776 81.9887 -58.6063 1.43335 -5.56348 66.8672 7.58595 3.97156 28.7808 6.43894e-006 7.64149e-006 -170.277 31.1804 55.1989 -61.7114 45.159 2.78207 49.8783 46.5079 35.4161 28.7808 1.37818e-005 1.77695e-005 2.27221 11.225 -86.6429 4.6081 7.31565 1.80987 -7.04301 7.38819 1.48448 -29.7034 6.43257 3.93237 -9.69076 6.43258 3.93238 101.528 12.7678 -87.4224 26.4268 37.7447 -41.6219 -3.07873 2.67128 -39.8862 -5.37983 -0.320015 -0.0162432 -78.4016 -52.7461 96.2705 2.79995 -54.4924 -7.06529 22.7603 16.2988 -57.2302 48.4813 -2.97264 -10.4332 54.8561 8.86579 33.2985 -42.8861 -6.18004 -21.6867 
-78.2108 79.2342 -111.397 76.118 -68.3917 66.352 -169.951 51.5857 79.6672 -62.0064 0.3187 -4.07066 67.542 7.49867 3.90196 28.7808 6.43894e-006 7.64149e-006 -169.333 29.8449 54.2721 -65.7073 47.4261 2.97476 54.5388 48.3197 33.8959 28.7808 1.37818e-005 1.77695e-005 2.52346 11.4424 -86.983 4.24733 7.64031 0.796455 -7.40108 7.6679 0.457429 -30.0945 7.04601 3.06692 -10.0818 7.04601 3.06692 100.318 2.5847 -90.163 19.4899 36.2183 -32.7885 -0.643548 1.46736 -42.7857 -5.37983 -0.320015 -0.0162432 -78.4398 -49.3013 96.161 -7.54893 -54.977 -16.2788 26.8755 15.7827 -63.5008 48.9667 -2.5321 -9.45954 50.0562 6.31925 33.6404 -41.3864 -8.10983 -19.6801 
-78.2235 78.0732 -111.629 80.7602 -67.4863 70.7408 -170.644 51.5382 78.6831 -64.0491 -1.98478 -3.55506 69.8401 8.12473 4.12442 28.7808 6.43894e-006 7.64149e-006 -168.882 29.2188 54.549 -68.6301 48.9929 3.13371 59.7311 47.8754 30.4516 28.7808 1.37818e-005 1.77695e-005 2.85835 11.4166 -87.6464 4.34833 7.82989 -0.346823 -7.29906 7.807 -0.693235 -30.0162 7.56995 2.03636 -10.0036 7.56994 2.03636 98.7885 -8.53892 -92.8829 12.2472 33.1009 -23.3868 1.75335 -0.0728334 -46.102 -5.37983 -0.320015 -0.0162432 -79.8599 -46.6419 93.8767 -20.0716 -52.5825 -28.5945 32.6517 14.4112 -69.5111 45.4694 -5.24547 -15.9489 43.8566 2.71584 32.9334 -38.3947 -10.2159 -17.2922 
-78.0404 77.3307 -111.712 85.3126 -67.22 75.0517 -170.978 51.0385 77.9841 -65.9043 -2.91742 -2.97274 70.5103 8.93815 4.49757 28.7808 6.43894e-006 7.64149e-006 -168.684 28.2311 54.7438 -70.451 48.8648 3.05717 63.1047 46.395 27.5628 28.7808 1.37818e-005 1.77695e-005 2.8946 11.2428 -88.0011 4.74027 7.62938 -1.28324 -6.90916 7.56546 -1.61966 -29.6239 7.66021 1.08291 -9.61123 7.6602 1.08292 97.3165 -21.9298 -93.4678 8.2533 28.4779 -17.3114 3.41906 -1.60946 -49.988 -5.37983 -0.320015 -0.0162432 -82.09 -43.16 90.0509 -28.1101 -43.9833 -36.5183 41.4748 13.0047 -74.8584 48.3813 -6.30055 -17.4039 36.8659 -1.15704 29.613 -33.9124 -11.3423 -14.4787 
-77.671 76.9472 -111.662 89.7036 -67.4853 79.3625 -171.523 50.2356 77.7009 -67.4606 -3.4238 -2.09675 70.529 9.01041 4.53596 28.7808 6.43894e-006 7.64149e-006 -168.83 26.8187 54.8624 -71.0947 46.6608 2.72183 64.5271 45.3169 26.119 28.7808 1.37818e-005 1.77695e-005 2.63565 10.9739 -88.2162 5.28557 6.87948 -2.01471 -6.36917 6.78411 -2.31676 -29.0513 7.16536 0.156468 -9.03861 7.16537 0.156469 94.8474 -36.4809 -95.6224 3.83258 24.1041 -10.3042 4.07392 -2.85734 -54.8213 -5.37983 -0.320015 -0.0162432 -84.2137 -39.1676 86.0096 -31.7828 -29.8812 -40.5752 44.9038 10.428 -76.8608 53.0505 -8.62513 -20.5557 29.3735 -4.21413 23.2177 -28.2225 -11.6259 -8.12064 
-77.1501 76.9778 -111.597 93.6899 -68.6852 83.9314 -172.069 48.8373 78.4606 -68.1356 -4.62225 -1.54694 71.0533 8.99294 4.49907 28.7808 6.43894e-006 7.64149e-006 -169.277 25.7914 55.349 -70.7241 44.2437 2.41968 63.3842 44.7965 26.415 28.7808 1.37818e-005 1.77695e-005 1.93449 10.718 -88.3743 5.72164 5.20422 -2.38728 -5.94148 5.09414 -2.61442 -28.5578 5.6804 -0.708439 -8.54519 5.6804 -0.708433 91.0266 -51.942 -98.8501 -1.5999 18.8879 -5.53714 4.43248 -4.42211 -59.389 -5.37983 -0.320015 -0.0162432 -84.7407 -37.1697 84.7466 -34.1823 -16.1733 -44.5512 44.5708 9.9136 -77.2358 54.1221 -7.3587 -17.8609 24.4069 -3.43136 16.6204 -24.9684 -9.01819 -1.37439 
-76.5304 77.4803 -111.556 97.124 -70.8971 88.605 -172.886 47.2859 80.0192 -67.9561 -6.59052 -0.83393 71.3512 9.26509 4.61713 28.7808 6.43894e-006 7.64149e-006 -169.602 25.8632 56.065 -69.7046 40.1565 1.97717 60.5597 41.5773 25.8526 28.7808 1.37818e-005 1.77695e-005 1.12343 10.5894 -88.3055 5.88848 3.52313 -2.39775 -5.78025 3.41422 -2.55053 -28.3472 4.08062 -1.22697 -8.33459 4.08063 -1.22696 90.5614 -64.3953 -97.1634 -3.41498 14.2165 -3.72861 3.33454 -4.95738 -65.1552 -5.37983 -0.320015 -0.0162432 -87.2726 -29.3432 78.3703 -45.3712 -10.1156 -46.1678 47.976 12.0473 -75.3651 49.7167 -7.83369 -20.134 19.5192 -3.82822 1.00116 -20.3043 -6.39557 14.6159 
-75.8936 78.3572 -111.539 99.1309 -74.1474 92.1147 -173.189 46.0718 82.2268 -67.1191 -8.69219 -0.740401 71.1847 8.4866 4.25266 28.7808 6.43894e-006 7.64149e-006 -169.734 27.4473 56.8058 -68.1055 37.7543 1.77197 55.5319 36.9736 25.2761 28.7808 1.37818e-005 1.77695e-005 -0.383103 10.4411 -88.4026 6.0059 0.487959 -2.53639 -5.66749 0.375877 -2.5554 -28.1864 1.22746 -2.27271 -8.17377 1.22746 -2.2727 90.9473 -65.9653 -96.4112 0.252351 7.64846 -2.8878 2.35419 -5.3089 -68.6114 -5.37983 -0.320015 -0.0162432 -89.6054 -25.8955 72.6116 -53.9017 -12.0643 -42.642 48.7614 13.6056 -75.2064 49.8129 -6.20193 -16.8036 11.6301 1.27863 -6.40383 -16.1729 -0.547019 26.7129 
-75.3335 79.6683 -111.443 98.1222 -79.013 92.3449 -172.991 44.8953 84.6869 -65.0907 -11.3875 -1.52627 70.9872 8.68142 4.3678 28.7808 6.43894e-006 7.64149e-006 -170.165 30.0283 57.9126 -64.9561 34.8932 1.57955 53.1369 34.9268 24.9617 28.7808 1.37818e-005 1.77695e-005 -2.09 10.4537 -88.5872 5.77977 -2.87969 -2.64255 -5.89036 -2.99315 -2.51327 -28.4179 -1.95286 -3.38533 -8.40522 -1.95286 -3.38533 89.1648 -63.1361 -99.2304 2.65816 2.33803 -3.41716 1.10907 -5.04227 -71.3856 -5.37983 -0.320015 -0.0162432 -90.3576 -25.9645 71.1157 -56.9194 -15.5394 -40.2365 50.5101 15.3528 -74.8264 47.8318 -3.65297 -11.9711 6.36413 8.98577 -5.90866 -14.7702 6.17615 33.8143 
